HIERARCHY
ROOT Hips
{
	OFFSET 0.000000 8.830580 0.000000
	CHANNELS 6 Xposition Yposition Zposition Zrotation Yrotation Xrotation 
	JOINT Spine
	{
		OFFSET 0.000000 0.010000 0.000000
		CHANNELS 3 Zrotation Yrotation Xrotation
		JOINT Spine1
		{
			OFFSET 0.000000 2.459130 0.000000
			CHANNELS 3 Zrotation Yrotation Xrotation
			JOINT Neck
			{
				OFFSET 0.000000 2.484630 0.000000
				CHANNELS 3 Zrotation Yrotation Xrotation
				JOINT Head_virtual
				{
					OFFSET 0.000000 0.000000 0.000000
					CHANNELS 3 Zrotation Yrotation Xrotation
					JOINT Head
					{
						OFFSET 0.000000 0.927525 0.000000
						CHANNELS 3 Zrotation Yrotation Xrotation
						End Site
						{
							OFFSET 0.000000 0.000000 0.000000
						}
					}
				}
				JOINT LeftUpArm_virtual
				{
					OFFSET 0.000000 0.000000 0.000000
					CHANNELS 3 Zrotation Yrotation Xrotation
					JOINT LeftUpArm
					{
						OFFSET 1.248820 0.000000 0.000000
						CHANNELS 3 Zrotation Yrotation Xrotation
						JOINT LeftForeArm
						{
							OFFSET 2.597580 0.000000 0.000000
							CHANNELS 3 Zrotation Yrotation Xrotation
							JOINT LeftHand
							{
								OFFSET 2.455420 0.000000 0.000000
								CHANNELS 3 Zrotation Yrotation Xrotation
								End Site
								{
									OFFSET 0.000000 0.000000 0.000000
								}
							}
						}
					}
				}
				JOINT RightUpArm_virtual
				{
					OFFSET -0.000000 -0.000000 -0.000000
					CHANNELS 3 Zrotation Yrotation Xrotation
					JOINT RightUpArm
					{
						OFFSET -1.248820 -0.000000 -0.000000
						CHANNELS 3 Zrotation Yrotation Xrotation
						JOINT RightForeArm
						{
							OFFSET -2.597580 -0.000000 -0.000000
							CHANNELS 3 Zrotation Yrotation Xrotation
							JOINT RightHand
							{
								OFFSET -2.455420 -0.000000 -0.000000
								CHANNELS 3 Zrotation Yrotation Xrotation
								End Site
								{
									OFFSET 0.000000 0.000000 0.000000
								}
							}
						}
					}
				}
			}
		}
	}
	JOINT LeftUpLeg
	{
		OFFSET 1.271939 0.000000 0.000000
		CHANNELS 3 Zrotation Yrotation Xrotation
		JOINT LeftLowLeg
		{
			OFFSET 0.000000 -4.342910 0.000000
			CHANNELS 3 Zrotation Yrotation Xrotation
			JOINT LeftFoot
			{
				OFFSET 0.000000 -4.487670 0.000000
				CHANNELS 3 Zrotation Yrotation Xrotation
				JOINT LeftToeBase
				{
					OFFSET 0.000000 0.000000 1.515070
					CHANNELS 3 Zrotation Yrotation Xrotation
					End Site
					{
						OFFSET 0.000000 0.000000 0.000000
					}
				}
			}
		}
	}
	JOINT RightUpLeg
	{
		OFFSET -1.271939 0.000000 0.000000
		CHANNELS 3 Zrotation Yrotation Xrotation
		JOINT RightLowLeg
		{
			OFFSET 0.000000 -4.342910 0.000000
			CHANNELS 3 Zrotation Yrotation Xrotation
			JOINT RightFoot
			{
				OFFSET 0.000000 -4.487670 0.000000
				CHANNELS 3 Zrotation Yrotation Xrotation
				JOINT RightToeBase
				{
					OFFSET 0.000000 0.000000 1.515070
					CHANNELS 3 Zrotation Yrotation Xrotation
					End Site
					{
						OFFSET 0.000000 0.000000 0.000000
					}
				}
			}
		}
	}
}
MOTION
Frames: 7
Frame Time: 0.041667
-19.427353 8.962860 35.119988 -176.411308 -4.224199 -161.042870 6.830539 -0.757616 -28.835758 -0.347726 1.672586 7.393177 0.000000 0.000000 0.000000 5.967654 5.682373 -4.728082 -13.230932 -6.821272 -79.451808 -29.855900 -0.108113 9.928860 -44.967201 -6.069140 25.122000 0.000000 -18.992001 0.000000 5.236730 10.660600 19.159201 30.311800 -4.515870 2.179370 46.170502 0.129851 23.290009 0.000000 18.722900 0.000000 -1.590020 -6.971510 5.760020 9.510153 -26.492435 -17.735645 0.000000 0.000000 6.131750 -2.812289 21.563212 -5.707008 0.000000 0.000000 -10.201380 2.317654 26.733928 -15.224410 0.000000 0.000000 3.636820 1.777239 -29.626831 2.341452 0.000000 0.000000 -18.096980 
-19.427595 8.962723 35.119519 -176.403758 -4.215653 -161.037587 6.828715 -0.745591 -28.840772 -0.358891 1.683832 7.385497 0.000000 0.000000 0.000000 5.987269 5.662107 -4.723838 -13.233674 -6.821517 -79.426173 -29.863800 -0.103590 9.929380 -44.944302 -6.072520 25.128401 0.000000 -18.964399 0.000000 5.195640 10.540700 19.158899 30.310900 -4.508950 2.185090 46.182201 0.117097 23.264008 0.000000 18.722700 0.000000 -1.582540 -6.959570 5.700950 9.520040 -26.505759 -17.730998 0.000000 0.000000 6.117040 -2.812012 21.596252 -5.716923 0.000000 0.000000 -10.257660 2.315179 26.756866 -15.229475 0.000000 0.000000 3.636160 1.784911 -29.638268 2.339071 0.000000 0.000000 -18.066240 
-19.428391 8.962456 35.117710 -176.403197 -4.177921 -161.005940 6.817614 -0.706688 -28.885505 -0.408317 1.730829 7.385728 0.000000 0.000000 0.000000 6.002797 5.665103 -4.678274 -13.224753 -6.815151 -79.413386 -29.846201 -0.098872 9.934050 -44.924301 -6.073900 25.138800 0.000000 -19.002501 0.000000 5.188330 10.615900 19.212099 30.324499 -4.517630 2.183000 46.202801 0.116968 23.272003 0.000000 18.693300 0.000000 -1.555140 -6.978300 5.770580 9.515216 -26.493304 -17.724272 0.000000 0.000000 6.084360 -2.789543 21.624201 -5.709637 0.000000 0.000000 -10.255120 2.293054 26.783629 -15.253352 0.000000 0.000000 3.632730 1.756056 -29.646679 2.343869 0.000000 0.000000 -18.081120 
-19.429359 8.962425 35.114672 -176.393332 -4.219585 -161.003705 6.834892 -0.715651 -28.950173 -0.437077 1.706261 7.429883 0.000000 0.000000 0.000000 5.996823 5.672978 -4.660305 -13.220489 -6.808170 -79.392116 -29.829000 -0.076621 9.948740 -44.926800 -6.095260 25.134100 0.000000 -18.997000 0.000000 5.164450 10.616100 19.139299 30.321600 -4.508850 2.208280 46.216900 0.127818 23.251007 0.000000 18.685900 0.000000 -1.532830 -6.996920 5.774970 9.524228 -26.515311 -17.705654 0.000000 0.000000 6.057710 -2.772159 21.622252 -5.711282 0.000000 0.000000 -10.183030 2.335979 26.705768 -15.204201 0.000000 0.000000 3.593920 1.709956 -29.622382 2.372529 0.000000 0.000000 -18.096690 
-19.429319 8.962201 35.115461 -176.401184 -4.155554 -160.998617 6.813527 -0.686808 -28.922574 -0.452657 1.752127 7.401750 0.000000 0.000000 0.000000 6.000949 5.683653 -4.634552 -13.213559 -6.804086 -79.401079 -29.833900 -0.081576 9.943170 -44.898701 -6.087330 25.151300 0.000000 -19.004601 0.000000 5.167560 10.661200 19.124300 30.334900 -4.502050 2.203280 46.217098 0.120999 23.251007 0.000000 18.690500 0.000000 -1.565370 -6.991640 6.023570 9.489106 -26.452370 -17.688539 0.000000 0.000000 6.045210 -2.783131 21.615617 -5.718767 0.000000 0.000000 -10.167750 2.289805 26.795087 -15.247255 0.000000 0.000000 3.635210 1.748044 -29.641276 2.332811 0.000000 0.000000 -18.075380 
-19.430452 8.962042 35.114683 -176.391827 -4.165805 -160.977841 6.819952 -0.671132 -28.936673 -0.501023 1.749546 7.367153 0.000000 0.000000 0.000000 6.012911 5.706686 -4.584113 -13.225351 -6.777218 -79.387683 -29.833900 -0.070583 9.953500 -44.867802 -6.078560 25.109100 0.000000 -18.985100 0.000000 5.155560 10.641900 19.109200 30.341101 -4.502500 2.221620 46.249802 0.138177 23.221008 0.000000 18.640499 0.000000 -1.579140 -6.977160 6.119120 9.515286 -26.492453 -17.713415 0.000000 0.000000 6.045130 -2.785473 21.645719 -5.730084 0.000000 0.000000 -10.171490 2.285702 26.797989 -15.274180 0.000000 0.000000 3.654690 1.756697 -29.653932 2.317913 0.000000 0.000000 -18.076840 
-19.431106 8.961973 35.113284 -176.391561 -4.168169 -160.969695 6.817591 -0.658771 -28.961496 -0.530832 1.762400 7.369435 0.000000 0.000000 0.000000 6.046138 5.700550 -4.561966 -13.258125 -6.754232 -79.364345 -29.814899 -0.083196 9.984740 -44.870602 -6.078170 25.042000 0.000000 -18.984301 0.000000 5.154050 10.662800 19.011200 30.345699 -4.530770 2.209690 46.263901 0.144497 23.270996 0.000000 18.633900 0.000000 -1.607820 -6.976020 6.120660 9.509436 -26.483980 -17.704392 0.000000 0.000000 6.029980 -2.776474 21.634472 -5.726838 0.000000 0.000000 -10.173760 2.279289 26.814832 -15.281359 0.000000 0.000000 3.666720 1.746303 -29.677718 2.312359 0.000000 0.000000 -18.086280 
